<svg xmlns="http://www.w3.org/2000/svg" viewBox="0 0 256 256" role="img" aria-label="Java"><g fill="none"><path fill="#5382A1" d="M154.4 199.7c-30.7 6.1-63.4 4.7-83.7-1.7-10.7-3.2-15.8-7.2-15.8-11.1 0-3.6 4.3-7.3 12.5-10.5-2.8 1.9-4.3 3.9-4.3 6.1 0 17.6 63.9 23.5 109.8 12.1 0 0-5.2 3.1-18.5 5.1Zm-2.4-23.8c-16.9 3.3-36.1 3.7-52.6 1.1-13.1-2-21.6-5.6-21.6-9.9 0-3.1 4-6.3 11.7-9.1-2.4 1.7-3.6 3.5-3.6 5.5 0 14.1 47.9 17.5 86.6 9.1 0 0-4.4 2.6-20.5 3.3Z"/><path fill="#E76F00" d="M130.2 37.3s16.2 9.6-15.4 24.6c-25.3 12-5.8 37.7 0 41.5 0 0-9.5-18.1 29.3-34.7 26.2-11.5 14.1-26 14.1-26s3.1 12.4-28 24.6c-27.5 10.9 0-29.9 0-29.9Zm32.6 62.8s7.3 6-8.1 15.2c-13.1 7.9-2.9 19.7.3 21.3 0 0-6.6-9.3 10.1-18 13.5-7.2 4.3-18.5 4.3-18.5s1.5 8.6-11.6 14.8c-12.4 6 5-14.8 5-14.8Z"/><path fill="#5382A1" d="M183.7 168.7c-3.1 7.2-12.2 12.9-26.5 16.8-39.2 10.6-99.2 2.4-99.2-14.8 0-5.3 6.8-10.6 18.6-14.7-6 2.9-9.1 6.1-9.1 9.6 0 18.1 57.4 24.6 100.3 13.3 6.7-1.8 12.7-4.3 15.9-7.1Z"/><path fill="#E76F00" d="M154.8 117.4c-19.6 4.1-27.8 7.8-27.8 7.8s4.8-3.8 13.9-6.9c17.1-5.9 50.1-7.8 50.1-7.8s-9.5 2.1-36.2 6.9Z"/></g></svg>
