<svg xmlns="http://www.w3.org/2000/svg" viewBox="0 0 256 256" role="img" aria-label="JavaScript"><path fill="#F7DF1E" d="M0 0h256v256H0z"/><path d="M67.3 213.7l19.6-11.9c3.8 6.7 7.2 12.4 15.4 12.4 7.9 0 12.8-3.1 12.8-15.2V115.6h24.1v84.1c0 24.9-14.6 36.3-35.9 36.3-19.2 0-30.3-10-36-22.3m85.3-2.6l19.6-11.3c5.2 8.5 11.9 14.6 23.8 14.6 10 0 16.4-5 16.4-11.9 0-8.3-6.6-11.2-17.8-16l-6.1-2.6c-17.5-7.4-29.1-16.7-29.1-36.3 0-18.1 13.8-31.8 35.4-31.8 15.4 0 26.5 5.4 34.5 19.6L211 143c-4.2-7.4-8.8-10.3-15.9-10.3-7.3 0-12 4.7-12 10.3 0 7.2 4.7 10.1 15.6 14.6l6.1 2.6c20.8 8.9 32.4 17.9 32.4 38.3 0 21.9-17.2 33.9-40.3 33.9-22.6 0-37.2-10.8-44.6-25.3" fill="#000"/></svg>
