<svg xmlns="http://www.w3.org/2000/svg" viewBox="0 0 256 256" role="img" aria-label="MySQL"><g fill="none"><path fill="#00618A" d="M196.2 188.7c-8.6-6.1-18.2-7.2-27.4-10.5-3-.9-6-2.2-8.7-3.9-3.2-2.1-5.4-5-7.4-8.3-3-5.1-5-10.7-6.9-16.3-1.5-4.3-2.8-8.7-4.4-12.9-2.8-7.2-7.3-12.9-13.9-17-5.6-3.5-11.7-5.7-18.1-6.8-6.1-1.1-12.3-1.6-18.6-1.3-7.5.3-14.9 1.5-22 4.1-4.1 1.5-8 3.6-11.4 6.3-3.9 3-6.7 6.9-8.2 11.6-1.9 5.8-1.6 11.7.4 17.5 2.4 7 6.8 12.7 12.4 17.5 7.7 6.7 16.8 10.4 26.7 12.1 10.3 1.8 20.7 1.7 31-0.1 3.8-.6 7.6-1.6 11.3-2.6 0 0-7.5 8.1-26.1 10.5-19.4 2.6-39.4 1.4-56.8-8.9-11.1-6.6-19.7-15.6-24.4-27.9-6.8-17.8-2.3-34.5 11.8-47.3 9.6-8.8 21.1-13.8 33.7-16.2 17.2-3.2 34.3-2.8 50.8 3 12.2 4.2 22.6 10.9 30.1 21.9 4.8 7.1 7.8 15 10.3 23.2 3.6 11.7 7.7 23.2 17.4 31.5 5.9 5 12.8 8 20.1 10.1 6.1 1.8 12.3 3.1 18.1 5.7 3.8 1.7 7.2 4 9.8 7.3 2.7 3.4 3.9 7.3 3.9 11.6-4.7-4.1-9.4-8.3-14.1-11.7z"/><path fill="#F29111" d="M226.3 181.8c-5.6-9.5-13.8-14.9-24.6-17.7-6-1.5-12.2-2.3-18.1-4.4-7.2-2.5-12.5-7.1-16.1-13.9-2.9-5.6-4.6-11.6-5.8-17.8-1.4-7.1-3.2-14.1-6.9-20.5-6.1-10.3-15.4-16.6-26.7-20-10.1-3.1-20.6-3.9-31-3.2-15.2 1-29.7 4.4-42.4 12.9-10.1 6.7-17.1 15.7-19.7 27.6-2.4 10.8-.2 21 6.3 30.1 7.6 10.6 18.1 17.1 30.4 21.1 12 3.9 24.3 4.6 36.8 3.5 10.7-1 21.1-3.5 30.7-8.6 3.1-1.6 6-3.5 8.9-5.3l3.5 7.6c-2.6 1.7-5 3.6-7.7 5.1-12.2 7-25.6 10.9-39.5 12.3-22.7 2.3-44.8-.2-64.7-12.2C33.4 173.4 22.4 159.6 19 141c-4-20.9 4.6-37.6 20.4-50.6 13.9-11.5 30.1-17.5 47.6-20.2 20.4-3.1 40.6-2.1 60 5.1 17.4 6.5 31.2 17.7 40 34.6 4.2 8.1 6.7 16.9 8.5 25.8 1.4 7.3 3.7 14.2 8.5 20.1 3.7 4.6 8.6 7.3 14.1 9.1 6.5 2.1 13.1 3.3 19.4 6.2 9.5 4.4 16.4 11.2 18.6 21.9-8.3-3.5-14.3-9.4-19.9-18.2z"/></g></svg>
