<svg xmlns="http://www.w3.org/2000/svg" viewBox="0 0 128 128" role="img" aria-label="Python"><defs><linearGradient id="a" x1="63.999" x2="63.999" y1="8.917" y2="119.215" gradientUnits="userSpaceOnUse"><stop offset="0" stop-color="#387eb8"/><stop offset="1" stop-color="#366994"/></linearGradient><linearGradient id="b" x1="63.999" x2="63.999" y1="8.917" y2="119.215" gradientUnits="userSpaceOnUse"><stop offset="0" stop-color="#ffe052"/><stop offset="1" stop-color="#ffc331"/></linearGradient></defs><path fill="url(#a)" d="M63.9 8.9c-23.3 0-21.8 10.1-21.8 10.1l.1 10.5h22.2v3.2H31.5s-22.3-2.5-22.3 21.8 19.5 22.9 19.5 22.9h11.6V66.8s-.6-19.5 19.1-19.5h22.4s18.6.3 18.6-18.1c0-18.4-16.8-20.3-26.5-20.3H63.9zm-12 13.1a4.6 4.6 0 1 1 0 9.3 4.6 4.6 0 0 1 0-9.3z"/><path fill="url(#b)" d="M64.1 119.2c23.3 0 21.8-10.1 21.8-10.1l-.1-10.5H63.6v-3.2h33.1s22.3 2.5 22.3-21.8S99.5 50.7 99.5 50.7H87.9v10.6s.6 19.5-19.1 19.5H46.4s-18.6-.3-18.6 18.1c0 18.4 16.8 20.3 26.5 20.3h9.8zm12-13.1a4.6 4.6 0 1 1 0-9.3 4.6 4.6 0 0 1 0 9.3z"/></svg>
