<svg xmlns="http://www.w3.org/2000/svg" viewBox="0 0 256 154" role="img" aria-label="Tailwind CSS"><path fill="#38BDF8" d="M128 0C93.9 0 74.7 17.1 70.6 51.4c9.4-17.1 21.8-23.9 37.1-20.4 8.1 1.9 13.9 7.6 20.3 14 10.4 10.5 22.4 22.6 48.6 22.6 34.1 0 53.3-17.1 57.4-51.4-9.4 17.1-21.8 23.9-37.1 20.4-8.1-1.9-13.9-7.6-20.3-14C165.2 12.2 153.2 0 128 0zM70.6 86c-34.1 0-53.3 17.1-57.4 51.4 9.4-17.1 21.8-23.9 37.1-20.4 8.1 1.9 13.9 7.6 20.3 14 10.4 10.5 22.4 22.6 48.6 22.6 34.1 0 53.3-17.1 57.4-51.4-9.4 17.1-21.8 23.9-37.1 20.4-8.1-1.9-13.9-7.6-20.3-14C107.8 98.2 95.8 86 70.6 86z"/></svg>
