<svg xmlns="http://www.w3.org/2000/svg" width="1200" height="675" viewBox="0 0 1200 675" role="img" aria-label="Movie Reviews">
  <defs>
    <linearGradient id="bg" x1="0" y1="0" x2="1" y2="1">
      <stop offset="0%" stop-color="#0F172A"/>
      <stop offset="100%" stop-color="#111827"/>
    </linearGradient>
  </defs>
  <rect width="1200" height="675" fill="url(#bg)"/>
  <g transform="translate(80,80)">
    <rect width="320" height="420" rx="18" fill="#111827" stroke="#1f2937"/>
    <rect x="0" y="0" width="320" height="200" rx="18" fill="#334155"/>
    <text x="16" y="240" font-size="24" fill="#e5e7eb" font-family="Inter,Arial,Helvetica,sans-serif">Culpa Mia</text>
    <text x="16" y="270" font-size="14" fill="#94a3b8" font-family="Inter,Arial,Helvetica,sans-serif">2023 • Romance</text>
    <g transform="translate(16,300)" fill="#fbbf24">
      <circle cx="0" cy="0" r="6"/>
      <circle cx="20" cy="0" r="6"/>
      <circle cx="40" cy="0" r="6"/>
      <circle cx="60" cy="0" r="6"/>
      <circle cx="80" cy="0" r="6"/>
    </g>
  </g>
  <g transform="translate(460,80)">
    <rect width="320" height="420" rx="18" fill="#111827" stroke="#1f2937"/>
    <rect width="320" height="200" rx="18" fill="#7f1d1d"/>
    <text x="16" y="240" font-size="24" fill="#e5e7eb" font-family="Inter,Arial,Helvetica,sans-serif">YOU</text>
    <text x="16" y="270" font-size="14" fill="#94a3b8" font-family="Inter,Arial,Helvetica,sans-serif">2018 • Thriller</text>
  </g>
  <g transform="translate(840,80)">
    <rect width="320" height="420" rx="18" fill="#111827" stroke="#1f2937"/>
    <rect width="320" height="200" rx="18" fill="#991b1b"/>
    <text x="16" y="240" font-size="24" fill="#e5e7eb" font-family="Inter,Arial,Helvetica,sans-serif">Money Heist</text>
    <text x="16" y="270" font-size="14" fill="#94a3b8" font-family="Inter,Arial,Helvetica,sans-serif">2017 • Thriller</text>
  </g>
  <text x="80" y="560" font-size="20" fill="#94a3b8" font-family="Inter,Arial,Helvetica,sans-serif">CRUD • Poster via URL • Star Rating • Filters</text>
</svg>
